<?xml version="1.0" standalone="no"?><!DOCTYPE svg PUBLIC "-//W3C//DTD SVG 1.1//EN" "http://www.w3.org/Graphics/SVG/1.1/DTD/svg11.dtd"><svg t="1779804824233" class="icon" viewBox="0 0 1024 1024" version="1.1" xmlns="http://www.w3.org/2000/svg" p-id="23660" xmlns:xlink="http://www.w3.org/1999/xlink" width="32" height="32"><path d="M775.168 791.04H246.784c-19.456 0-31.744 11.264-31.744 27.648s12.8 27.648 31.744 27.648h528.384c19.456 0 31.744-11.264 31.744-27.648 0.512-16.896-11.776-27.648-31.744-27.648z" p-id="23661" fill="#515151"></path><path d="M898.048 171.008c-19.456 0-31.744 11.264-31.744 27.648v642.56c0 27.648-31.744 55.296-64.512 55.296H235.008c-38.4 0-83.968-27.648-83.968-55.296v-60.928c0-27.648 38.4-44.032 77.312-44.032h541.184c19.456 0 31.744-11.264 31.744-27.648v-542.72c0-60.928-51.712-99.84-128.512-99.84H235.008c-70.656 0-141.824 33.792-141.824 99.84v698.368c6.656 49.664 64.512 89.088 122.368 94.208h586.24c70.656 0 129.024-49.664 129.024-104.96v-655.36c-0.512-11.776-13.824-27.136-32.768-27.136zM376.832 304.64c0-17.408 14.336-31.744 31.744-31.744 6.144 0 12.288 2.048 17.408 5.12l143.36 96.256c14.336 9.728 18.432 29.184 8.704 44.032-2.048 3.584-5.12 6.144-8.704 8.704l-143.36 96.256c-14.336 9.728-34.304 5.632-44.032-8.704-3.584-5.12-5.12-11.264-5.12-17.408V304.64z" p-id="23662" fill="#515151"></path></svg>