<?xml version="1.0" standalone="no"?><!DOCTYPE svg PUBLIC "-//W3C//DTD SVG 1.1//EN" "http://www.w3.org/Graphics/SVG/1.1/DTD/svg11.dtd"><svg t="1779804856776" class="icon" viewBox="0 0 1024 1024" version="1.1" xmlns="http://www.w3.org/2000/svg" p-id="25048" xmlns:xlink="http://www.w3.org/1999/xlink" width="32" height="32"><path d="M836.3 170.65c17.102 0 31.284 12.646 33.742 29.081l0.358 5.069v316.16a34.15 34.15 0 0 1-29.082 33.792l-5.017 0.358H733.9V750.9a34.15 34.15 0 0 1-29.133 33.791l-5.018 0.359H386.765L259.43 880.589a34.202 34.202 0 0 1-53.248-17.357l-1.024-4.813-0.358-5.12-0.051-68.3H153.6a34.15 34.15 0 0 1-32.666-24.218l-1.075-4.813-0.41-5.069V341.3c0-17.152 12.647-31.334 29.082-33.792l5.069-0.307h174.234V204.8c0-17.152 12.646-31.334 29.132-33.792l5.018-0.358h474.317z m-477.9 409.6H256l-5.069 0.41a34.15 34.15 0 0 0 0 67.48l5.069 0.41h102.4l5.069-0.41a34.15 34.15 0 0 0-5.069-67.89z m102.4-136.5H256l-5.069 0.41a34.15 34.15 0 0 0 0 67.482l5.069 0.41h204.8l5.069-0.41a34.15 34.15 0 0 0-5.069-67.892zM802.1 238.9H396.082v68.249H699.7c17.152 0 31.386 12.646 33.792 29.133l0.359 5.017v145.46l68.25 0.05V238.9z" p-id="25049" fill="#515151"></path></svg>