<?xml version="1.0" standalone="no"?><!DOCTYPE svg PUBLIC "-//W3C//DTD SVG 1.1//EN" "http://www.w3.org/Graphics/SVG/1.1/DTD/svg11.dtd"><svg t="1779765468331" class="icon" viewBox="0 0 1024 1024" version="1.1" xmlns="http://www.w3.org/2000/svg" p-id="4192" xmlns:xlink="http://www.w3.org/1999/xlink" width="32" height="32"><path d="M482.74916144 157.20681948l-144.38214401 154.67843777a29.25083856 29.25083856 0 0 1-42.74522639-39.93714475l195.00559493-208.92899506a29.25083856 29.25083856 0 0 1 42.74522806 0l195.00559493 208.92899506a29.25083856 29.25083856 0 0 1-42.74522639 39.93714475l-144.38214401-154.67843777v469.02745808a29.25083856 29.25083856 0 1 1-58.50167712 0V157.20681948z m242.00194284 423.04513942a29.25083856 29.25083856 0 1 1 0-58.50167883h141.80807014c78.78226043 0 142.70509465 63.76682959 142.70509466 142.47108857v124.56957291a142.58809162 142.58809162 0 0 1-142.74409624 142.47108857H157.47982716a142.58809162 142.58809162 0 0 1-142.74409624-142.47108857v-124.56957291a142.58809162 142.58809162 0 0 1 142.74409624-142.47108857h141.76906856a29.25083856 29.25083856 0 1 1 0 58.50167883H157.47982716c-46.5283357 0-84.20341585 37.59707867-84.20341583 83.96940974v124.56957291c0 46.37233107 37.6750818 83.96940974 84.2424174 83.96940975h709.04034569c46.56733561 0 84.24241743-37.59707867 84.24241742-83.96940975v-124.56957291a84.0864128 84.0864128 0 0 0-84.24241742-83.96940974h-141.76906859z" fill="#ffffff" p-id="4193"></path></svg>