<?xml version="1.0" standalone="no"?><!DOCTYPE svg PUBLIC "-//W3C//DTD SVG 1.1//EN" "http://www.w3.org/Graphics/SVG/1.1/DTD/svg11.dtd"><svg t="1779765990616" class="icon" viewBox="0 0 1024 1024" version="1.1" xmlns="http://www.w3.org/2000/svg" p-id="10293" xmlns:xlink="http://www.w3.org/1999/xlink" width="32" height="32"><path d="M864 768a32 32 0 0 0 32-32V288a32 32 0 0 0-32-32H160a32 32 0 0 0-32 32v448a32 32 0 0 0 32 32z m0 64H160a96 96 0 0 1-96-96V288a96 96 0 0 1 96-96h704a96 96 0 0 1 96 96v448a96 96 0 0 1-96 96z" p-id="10294" fill="#ffffff"></path><path d="M784.96 291.84a32 32 0 1 1 30.08 56.32l-297.6 160a32 32 0 0 1-32 0l-278.08-160a32 32 0 0 1 32-55.68l262.72 151.36z" p-id="10295" fill="#ffffff"></path></svg>