<?xml version="1.0" standalone="no"?><!DOCTYPE svg PUBLIC "-//W3C//DTD SVG 1.1//EN" "http://www.w3.org/Graphics/SVG/1.1/DTD/svg11.dtd"><svg t="1779804727853" class="icon" viewBox="0 0 1024 1024" version="1.1" xmlns="http://www.w3.org/2000/svg" p-id="18948" xmlns:xlink="http://www.w3.org/1999/xlink" width="32" height="32"><path d="M783.36 221.85a102.4 102.4 0 0 1 102.093 94.77l0.307 7.68v409.6a102.4 102.4 0 0 1-94.72 102.094l-7.68 0.256H237.21a102.4 102.4 0 0 1-102.093-94.72l-0.307-7.68v-409.6a102.4 102.4 0 0 1 94.77-102.042l7.68-0.307h546.1z m-155.597 81.408a34.15 34.15 0 0 0-50.79 23.603l-54.17 203.315a128 128 0 1 0-108.288 220.826l6.759 1.024A128 128 0 0 0 562.79 647.168l71.783-253.798 47.462 35.481 3.277 2.202a34.15 34.15 0 0 0 37.58-56.832l-91.852-68.762z" p-id="18949" fill="#515151"></path></svg>