<?xml version="1.0" standalone="no"?><!DOCTYPE svg PUBLIC "-//W3C//DTD SVG 1.1//EN" "http://www.w3.org/Graphics/SVG/1.1/DTD/svg11.dtd"><svg t="1779803968351" class="icon" viewBox="0 0 1024 1024" version="1.1" xmlns="http://www.w3.org/2000/svg" p-id="6002" xmlns:xlink="http://www.w3.org/1999/xlink" width="32" height="32"><path d="M697.344 821.248v184.32L942.08 776.704H743.424c-25.6-1.024-46.08 19.456-46.08 44.544zM849.92 26.624H207.872c-50.688 0-92.16 40.96-92.16 92.16V913.92c0 50.688 40.96 92.16 92.16 92.16h397.312V777.216c0-50.688 40.96-92.16 92.16-92.16H942.08V117.76c0-50.176-40.96-91.136-92.16-91.136z m-92.16 519.68H300.032c-25.6 0-46.08-20.48-46.08-46.08s20.48-46.08 46.08-46.08h459.264c25.6 0 46.08 20.48 46.08 46.08-1.536 25.6-22.016 46.08-47.616 46.08z m0-228.864H300.032c-25.6 0-46.08-20.48-46.08-46.08s20.48-46.08 46.08-46.08h459.264c25.6 0 46.08 20.48 46.08 46.08s-22.016 46.08-47.616 46.08z" p-id="6003" fill="#515151"></path></svg>