<?xml version="1.0" standalone="no"?><!DOCTYPE svg PUBLIC "-//W3C//DTD SVG 1.1//EN" "http://www.w3.org/Graphics/SVG/1.1/DTD/svg11.dtd"><svg t="1779766351834" class="icon" viewBox="0 0 1024 1024" version="1.1" xmlns="http://www.w3.org/2000/svg" p-id="21963" xmlns:xlink="http://www.w3.org/1999/xlink" width="32" height="32"><path d="M512 806.4c-46.933333 0-93.866667-8.533333-136.533333-21.333333C226.133333 729.6 128 584.533333 128 426.666667c0-213.333333 170.666667-384 384-384s384 170.666667 384 384c0 157.866667-98.133333 302.933333-247.466667 358.4-42.666667 17.066667-89.6 21.333333-136.533333 21.333333zM512 128c-166.4 0-298.666667 132.266667-298.666667 298.666667 0 123.733333 76.8 234.666667 192 277.333333 68.266667 25.6 145.066667 25.6 217.6 0 110.933333-42.666667 192-153.6 192-277.333333-4.266667-166.4-136.533333-298.666667-302.933333-298.666667z" fill="#ffffff" p-id="21964"></path><path d="M537.6 981.333333h-55.466667c-51.2 0-98.133333-29.866667-119.466666-81.066666L298.666667 742.4c-8.533333-21.333333 0-46.933333 25.6-55.466667 21.333333-8.533333 46.933333 0 55.466666 25.6l64 157.866667c8.533333 17.066667 21.333333 25.6 38.4 25.6h55.466667c17.066667 0 34.133333-8.533333 38.4-25.6l64-157.866667c8.533333-21.333333 34.133333-34.133333 55.466667-25.6 21.333333 8.533333 34.133333 34.133333 25.6 55.466667l-64 157.866667c-17.066667 51.2-64 81.066667-119.466667 81.066666zM512 597.333333c-4.266667 0-8.533333 0-12.8-4.266666-21.333333-8.533333-34.133333-34.133333-25.6-55.466667l21.333333-59.733333H469.333333c-12.8 0-25.6-8.533333-34.133333-17.066667s-8.533333-21.333333-8.533333-34.133333l42.666666-140.8c8.533333-21.333333 29.866667-34.133333 51.2-29.866667 21.333333 8.533333 34.133333 29.866667 29.866667 51.2l-25.6 85.333333h29.866667c12.8 0 25.6 8.533333 34.133333 17.066667 8.533333 12.8 8.533333 25.6 4.266667 38.4l-42.666667 115.2c-4.266667 21.333333-21.333333 34.133333-38.4 34.133333z" fill="#ffffff" p-id="21965"></path></svg>