<?xml version="1.0" standalone="no"?><!DOCTYPE svg PUBLIC "-//W3C//DTD SVG 1.1//EN" "http://www.w3.org/Graphics/SVG/1.1/DTD/svg11.dtd"><svg t="1779766175478" class="icon" viewBox="0 0 1066 1024" version="1.1" xmlns="http://www.w3.org/2000/svg" p-id="16920" xmlns:xlink="http://www.w3.org/1999/xlink" width="33.3125" height="32"><path d="M449.480479 52.104402z m537.259966 268.288595l-239.185235-34.736268a30.55426 30.55426 0 0 1-23.129063-16.728031l-106.683869-216.696276a93.881805 93.881805 0 0 0-168.048432 0l-106.683869 216.696276a30.55426 30.55426 0 0 1-23.129063 16.728031l-239.185235 34.736268a93.881805 93.881805 0 0 0-53.64065 27.31107l-3.456557 3.712599-0.384062 0.384062a93.881805 93.881805 0 0 0 5.504888 128.490052l173.041236 168.688535a30.596934 30.596934 0 0 1 8.790751 27.055029l-41.222647 238.331764a94.265867 94.265867 0 0 0 9.430854 59.529599l2.304371 4.267355 0.256042 0.384062a93.881805 93.881805 0 0 0 124.009329 34.736268l213.922495-112.487472a30.383566 30.383566 0 0 1 28.463257 0l213.922495 112.487472a94.265867 94.265867 0 0 0 59.529599 9.430854l4.608743-0.896144h0.384062a93.881805 93.881805 0 0 0 71.520866-107.2813l-40.881259-238.16107a30.468913 30.468913 0 0 1 8.790751-27.055029l173.041236-168.688534a93.881805 93.881805 0 0 0 27.311071-53.64065l0.512082-4.608743v-0.512083a93.412396 93.412396 0 0 0-79.714187-101.477696zM315.14415 651.283686a49.373295 49.373295 0 0 0-14.295638-43.911081l-173.041236-168.560513a15.362477 15.362477 0 0 1 8.534709-26.158885L375.52722 377.916939a49.543989 49.543989 0 0 0 37.424702-27.18305l106.683869-216.568255a15.319804 15.319804 0 0 1 27.439091 0l106.68387 216.568255a49.842704 49.842704 0 0 0 37.424701 27.18305l238.971868 34.736268a15.319804 15.319804 0 0 1 8.534709 26.158885l-173.041236 168.560513a49.80003 49.80003 0 0 0-14.295638 43.911081l40.881258 238.03305a15.27713 15.27713 0 0 1-22.232918 16.087927l-213.794474-112.359451a49.373295 49.373295 0 0 0-46.215453 0l-213.794474 112.359451a15.27713 15.27713 0 0 1-22.232918-16.087927l40.881258-238.03305z" fill="#ffffff" p-id="16921"></path><path d="M686.873425 580.701638a49.67201 49.67201 0 0 0-83.768174-21.592815 82.445294 82.445294 0 0 1-58.505434 24.409269h-0.256042a82.445294 82.445294 0 0 1-58.249392-24.281248 49.67201 49.67201 0 1 0-70.24066 70.240659 182.386743 182.386743 0 0 0 128.490052 53.384609h0.512083a183.06952 183.06952 0 0 0 129.130156-53.896691 50.226766 50.226766 0 0 0 12.887411-48.263783z" fill="#ffffff" p-id="16922"></path></svg>